<?xml version="1.0" encoding="utf-8"?>
<!-- Generator: Adobe Illustrator 25.0.0, SVG Export Plug-In . SVG Version: 6.00 Build 0)  -->
<svg version="1.1" id="Layer_1" xmlns="http://www.w3.org/2000/svg" xmlns:xlink="http://www.w3.org/1999/xlink" x="0px" y="0px"
	 viewBox="0 0 135 135" style="enable-background:new 0 0 135 135;" xml:space="preserve">
<style type="text/css">
	.st0{fill:#1B4735;}
	.st1{fill:#FFFFFF;}
</style>
<g id="Layer_2_1_">
	<g id="Layer_1-2">
		<path class="st0" d="M30,0h75c16.6,0,30,13.4,30,30v75c0,16.6-13.4,30-30,30H30c-16.6,0-30-13.4-30-30V30C0,13.4,13.4,0,30,0z"/>
		<path class="st1" d="M71.7,92.4c-2.9-1-7,0.6-9.9,4.1c-1.6,1.8-2.6,4.1-3,6.5c-0.2-0.4-0.3-0.7-0.5-1.1l-2.2,0.9
			c1.1,2.6,2.1,5.2,2.8,7.9c1.5,5,2,10.2,1.6,15.4c-1.8-1.9-4.2-3.1-6.8-3.5c-4.5-0.8-8.7,0.5-10.3,3.1c0.6,3,4,5.8,8.5,6.6
			c2.5,0.5,5.1,0.3,7.5-0.7c-0.4,1.2-0.8,2.3-1.3,3.4h2.7c3.4-7.8,2.9-16.6,0.5-24.9c-0.3-1-0.6-1.9-0.9-2.8c2.8,0.4,6.3-1.2,9-4.3
			C72.2,99.4,73.1,95.1,71.7,92.4z"/>
		<path class="st1" d="M112.9,85.6c-3.4-1.9-8.9-1-13.5,2.7c-2.4,1.8-4.2,4.3-5.3,7.1c-1-9.2-3.3-18.2-6.7-26.8
			c5.9,4.2,13.3,4.1,17.2-0.3c4.2-4.8,2.6-13-3.5-18.3c-0.6-0.5-1.2-1-1.9-1.4c0.8-0.7,1.5-1.4,2.2-2.2c5.1-6.2,5.3-14.6,0.3-18.7
			s-13.1-2.3-18.2,4c-0.6,0.7-1.2,1.5-1.7,2.3c0.1-0.3,0.1-0.6,0.2-1c1.2-7.5-3-14.3-9.3-15.3S60.3,22,59.2,29.5
			c-0.5,3.2,0,6.4,1.4,9.3c-7-1.8-13.9,0.9-15.9,6.5c-0.6,1.6-0.7,3.2-0.4,4.9c-3.5,1.2-6.3,3.8-7.6,7.2c-0.3,0.7-0.5,1.4-0.7,2.2
			c0-0.2,0-0.5-0.1-0.8c-0.8-5.9-5.4-10.1-10.4-9.4s-8.4,5.9-7.6,11.8c0.3,2.5,1.4,4.8,3.1,6.7c-5.7,0.2-10.3,3.8-10.5,8.4
			c-0.3,5,4.6,9.3,10.9,9.7c2,0.1,4-0.2,5.8-0.9c-0.1,0.4-0.2,0.8-0.3,1.2c-1.4,6.2,1.5,12.1,6.3,13.1s10-3,11.3-9.2
			c0.4-1.9,0.4-3.9,0.1-5.8c4.7,5.6,8.6,11.9,11.5,18.6l2.2-0.9c-2.7-6.3-6.3-12.3-10.5-17.8c5.4,1.8,10.9,0.2,12.8-4
			c0.2-0.4,0.3-0.9,0.4-1.3c0.8,1.2,1.9,2.2,3.2,2.9c5.6,3.1,13.3-0.1,17.2-7.2c1.2-2.2,1.9-4.6,2.2-7.1
			c5.1,11.1,12.1,36.7,4.9,55.8c-0.5-2.8-1.7-5.5-3.5-7.7c-3.7-4.6-8.9-6.8-12.6-5.6c-2,3.4-1,8.9,2.7,13.5c3,3.8,7.1,5.9,10.5,5.9
			c-1.2,2-2.7,3.9-4.3,5.6h4.2c7.5-9.3,9.6-21.7,9.1-33.8c3.4,1.4,8.5,0.4,12.8-3C111.9,94.5,114.1,89.3,112.9,85.6z M43.1,73.8
			c-1.5,4.3-6.1,6.6-10.4,5.1s-6.6-6.1-5.1-10.4c1.5-4.3,6.1-6.6,10.4-5.1c0,0,0,0,0,0C42.3,64.9,44.6,69.5,43.1,73.8z M61.1,63.4
			c-1.3,2.3-2.1,5-2.2,7.7c-1.3-1.7-3.1-3-5-3.9c-0.6-0.3-1.1-0.5-1.7-0.6c0.4-0.7,0.8-1.4,1.1-2.2c0.5-1.1,0.8-2.2,1-3.4
			c0.1,0,0.2,0.1,0.2,0.1c2.4,0.9,4.9,1.2,7.4,1C61.7,62.5,61.4,63,61.1,63.4L61.1,63.4z M77.8,58.2c-5.6,0.2-10.3-4.2-10.5-9.8
			c-0.2-5.6,4.2-10.3,9.8-10.5c5.6-0.2,10.3,4.2,10.5,9.7C87.7,53.2,83.4,57.9,77.8,58.2L77.8,58.2z"/>
	</g>
</g>
</svg>
