<?xml version="1.0" encoding="utf-8"?>
<!-- Generator: Adobe Illustrator 25.0.0, SVG Export Plug-In . SVG Version: 6.00 Build 0)  -->
<svg version="1.1" id="Layer_1" xmlns="http://www.w3.org/2000/svg" xmlns:xlink="http://www.w3.org/1999/xlink" x="0px" y="0px"
	 viewBox="0 0 135 135" style="enable-background:new 0 0 135 135;" xml:space="preserve">
<style type="text/css">
	.st0{fill:#1B4735;}
	.st1{fill:#FFFFFF;}
</style>
<g id="Layer_2_1_">
	<g id="Layer_1-2">
		<path class="st0" d="M30,0h75c16.6,0,30,13.4,30,30v75c0,16.6-13.4,30-30,30H30c-16.6,0-30-13.4-30-30V30C0,13.4,13.4,0,30,0z"/>
		<path class="st1" d="M132.2,78.1c-0.3-4.6-4.9-8.1-10.5-8.4c12.1-14.2-11.6-28.8-14.9-8.2c-0.9-4.2-4.3-8.1-7.8-9.2
			c22-3.1,20.9-31.5-2.8-26.5c10.9-25-27.8-35.6-24.3-5.4C57.7-2.1,32.7,18.8,52,36.9c-18,11.6-5.4,35.7,13.4,23
			c-2.6,6.5-4.6,13.2-6,20C58,72,45.5,63.3,38.8,67c-0.7,1.8-0.7,3.8-0.2,5.7c-2.9-7.9-13.2-4-14.7,3.6c-2.8-16.9-22.2-4.9-12.3,6.8
			c-15.5,1.4-7.4,19.1,5,14.1c-3.9,16.6,16.9,14.6,14.3-0.6c6.6,8,11.8,18,13.1,28.4c-2.9-3.6-11.9-4.2-14.1-0.3
			c0.6,4.9,10.5,7.4,14.2,4.2c-0.1,2-0.4,4-0.9,6h2.1c0.6-2.4,0.9-4.9,0.8-7.3l0,0l0,0l0,0l0,0l0,0l0,0c-0.1-3.9-0.8-7.7-2.1-11.4
			c4.7,2.3,13.7-4.6,11.9-9.9c-4.1-2.8-12.7,3.2-12.5,8.1c-2.4-6.4-5.7-12.3-9.9-17.7c12,4.1,15.2-11.3,3.6-14.5
			c1.6-2.4,2.2-5.4,1.8-8.2c2,7.2,12.8,14.8,19.3,12.3c-2.3,16.4-1.5,35,9,48.7H72c-0.8-0.9-1.5-1.7-2.2-2.6l0,0
			c-6.2-8.2-8.6-18.7-8.9-28.8c7.4,5.6,25.4-4.1,23.9-13.3c-5.7-5.7-20.8,0-23.9,7.7C61.5,84.3,64.6,71,70,58.6
			c0.3,6.9,6,14.9,12.4,16.8C78.7,83.2,87,89.2,95,86.2c-4.9,6.3-8.9,13.4-11.8,20.9c-1.4,3.7-2.5,7.5-3.1,11.5
			c-1.9-5-10.3-9.4-14.4-6.7c-2.2,5.9,8.1,14.7,13.9,12.3c-0.1,3.7,0.4,7.4,1.6,10.9h2.6c-3.8-10-1.1-21.2,3-30.7
			c1.6,6.1,15,8.9,18.3,3.5c-0.4-6-12.6-9.7-17.2-5.8c2.7-5.6,6.1-10.9,10.1-15.7c-3.1,18.4,22.2,20.9,17.4,0.7
			C122.2,90,132.9,85.3,132.2,78.1z M25.2,92.5c-8,2.8-12.2-9.8-4.1-12.3C29.1,77.3,33.3,89.9,25.2,92.5L25.2,92.5z M77.7,48.5
			c-15.1-0.6-14.3-23.6,0.9-23.1S92.8,49,77.7,48.5L77.7,48.5z M115.2,76.1c-3.1,9.8-18.4,4.7-15-5
			C103.3,61.3,118.6,66.4,115.2,76.1L115.2,76.1z"/>
	</g>
</g>
</svg>
