<?xml version="1.0" encoding="utf-8"?>
<!-- Generator: Adobe Illustrator 25.0.0, SVG Export Plug-In . SVG Version: 6.00 Build 0)  -->
<svg version="1.1" id="Layer_1" xmlns="http://www.w3.org/2000/svg" xmlns:xlink="http://www.w3.org/1999/xlink" x="0px" y="0px"
	 viewBox="0 0 34.9 34.9" style="enable-background:new 0 0 34.9 34.9;" xml:space="preserve">
<style type="text/css">
	.st0{fill:#1C4735;}
	.st1{fill:#FFFFFF;}
</style>
<rect class="st0" width="34.9" height="34.9"/>
<g id="Layer_2_1_">
	<g id="Layer_1-2">
		<path class="st1" d="M17.5,3.2c4.7,0,5.2,0,7.1,0.1c4.7,0.2,6.9,2.5,7.2,7.2c0.1,1.8,0.1,2.4,0.1,7s0,5.2-0.1,7.1
			c-0.2,4.7-2.4,6.9-7.2,7.2c-1.8,0.1-2.4,0.1-7.1,0.1s-5.2,0-7-0.1c-4.8-0.2-6.9-2.5-7.2-7.2c-0.1-1.8-0.1-2.4-0.1-7.1s0-5.2,0.1-7
			c0.2-4.7,2.4-6.9,7.2-7.2C12.2,3.2,12.8,3.2,17.5,3.2z M17.5,0c-4.7,0-5.3,0-7.2,0.1C3.9,0.4,0.4,3.9,0.1,10.3
			C0,12.1,0,12.7,0,17.5s0,5.3,0.1,7.2c0.3,6.3,3.8,9.9,10.2,10.2c1.9,0.1,2.5,0.1,7.2,0.1s5.3,0,7.2-0.1c6.3-0.3,9.9-3.8,10.2-10.2
			c0.1-1.9,0.1-2.5,0.1-7.2s0-5.3-0.1-7.2C34.5,3.9,31,0.4,24.7,0.1C22.8,0,22.2,0,17.5,0z M17.5,8.5c-5,0-9,4-9,9s4,9,9,9s9-4,9-9
			S22.4,8.5,17.5,8.5z M17.5,23.2c-3.2,0-5.8-2.6-5.8-5.8s2.6-5.8,5.8-5.8s5.8,2.6,5.8,5.8l0,0C23.2,20.7,20.7,23.2,17.5,23.2
			L17.5,23.2z M26.8,6.1c-1.2,0-2.1,0.9-2.1,2.1s0.9,2.1,2.1,2.1s2.1-0.9,2.1-2.1l0,0C28.9,7,27.9,6.1,26.8,6.1z"/>
	</g>
</g>
</svg>
