<?xml version="1.0" encoding="utf-8"?>
<!-- Generator: Adobe Illustrator 25.0.0, SVG Export Plug-In . SVG Version: 6.00 Build 0)  -->
<svg version="1.1" id="Layer_1" xmlns="http://www.w3.org/2000/svg" xmlns:xlink="http://www.w3.org/1999/xlink" x="0px" y="0px"
	 viewBox="0 0 135 135" style="enable-background:new 0 0 135 135;" xml:space="preserve">
<style type="text/css">
	.st0{fill:#1B4735;}
	.st1{fill:#FFFFFF;}
</style>
<g id="Layer_2_1_">
	<g id="Layer_1-2">
		<path class="st0" d="M30,0h75c16.6,0,30,13.4,30,30v75c0,16.6-13.4,30-30,30H30c-16.6,0-30-13.4-30-30V30C0,13.4,13.4,0,30,0z"/>
		<path class="st1" d="M86.2,37.5l11.3-11.3c0.6-0.6,0.6-1.5,0-2.1c-0.6-0.6-1.5-0.6-2.1,0l0,0L84,35.3
			C82.6,36.7,84.8,38.9,86.2,37.5z"/>
		<path class="st1" d="M93.2,59.7c0,0.8,0.7,1.5,1.5,1.5h16c0.8,0,1.5-0.7,1.5-1.5s-0.7-1.5-1.5-1.5h-16
			C93.9,58.2,93.2,58.9,93.2,59.7z"/>
		<path class="st1" d="M30.4,59.7c0-0.8-0.7-1.5-1.5-1.5h-16c-0.8,0-1.5,0.7-1.5,1.5s0.7,1.5,1.5,1.5h16
			C29.7,61.2,30.4,60.5,30.4,59.7z"/>
		<path class="st1" d="M37.4,37.5c0.6,0.6,1.5,0.6,2.1,0s0.6-1.5,0-2.1L28.2,24c-0.6-0.6-1.6-0.5-2.1,0.1c-0.5,0.6-0.5,1.5,0,2
			L37.4,37.5z"/>
		<path class="st1" d="M61.8,28.3c0.8,0,1.5-0.7,1.5-1.5v-16c0-0.8-0.7-1.5-1.5-1.5s-1.5,0.7-1.5,1.5v16
			C60.3,27.6,61,28.3,61.8,28.3z"/>
		<path class="st1" d="M118.9,82.8c1.6-10.3-9.6-18.9-19.1-14.7c-3.6-4.3-9.4-6-14.8-4.4c3.7-42.3-60.8-36.1-49.2,4.7
			c-15.2-3.5-22.5,17.2-11.2,24.9c-3.8,10.2,8.5,21.7,18.6,16.8c1.2,12.3,19,16.3,25.4,5.8c3.3,0.5,6.6-0.3,9.3-2.3
			c8.2,7.6,22.8,1.5,23.1-9.7C113.9,111.8,128.8,94.2,118.9,82.8z"/>
	</g>
</g>
</svg>
