<svg xmlns="http://www.w3.org/2000/svg" viewBox="0 0 135 135"><defs><style>.cls-1{fill:#413d1f;}.cls-2{fill:#fff;}</style></defs><g id="Layer_2" data-name="Layer 2"><g id="Layer_1-2" data-name="Layer 1"><rect class="cls-1" width="135" height="135" rx="30"/><path class="cls-2" d="M86.15,37.47,97.46,26.16A1.5,1.5,0,1,0,95.34,24L84,35.35C82.64,36.7,84.79,38.87,86.15,37.47Z"/><path class="cls-2" d="M93.24,59.7a1.5,1.5,0,0,0,1.5,1.5h16a1.5,1.5,0,0,0,0-3h-16A1.5,1.5,0,0,0,93.24,59.7Z"/><path class="cls-2" d="M30.36,59.7a1.5,1.5,0,0,0-1.5-1.5h-16a1.5,1.5,0,0,0,0,3h16A1.5,1.5,0,0,0,30.36,59.7Z"/><path class="cls-2" d="M37.44,37.47a1.5,1.5,0,0,0,2.13-2.12L28.25,24a1.5,1.5,0,0,0-2.12,2.12Z"/><path class="cls-2" d="M61.8,28.26a1.5,1.5,0,0,0,1.5-1.5v-16a1.5,1.5,0,0,0-3,0v16A1.5,1.5,0,0,0,61.8,28.26Z"/><path class="cls-2" d="M118.88,82.75c1.59-10.33-9.6-18.87-19.13-14.72A14.08,14.08,0,0,0,85,63.58c3.66-42.3-60.85-36.09-49.23,4.7C20.53,64.81,13.3,85.43,24.55,93.15,20.79,103.32,33,114.86,43.16,110c1.24,12.32,19,16.3,25.42,5.83a12.29,12.29,0,0,0,9.27-2.26c8.17,7.62,22.85,1.52,23.1-9.73C113.91,111.76,128.75,94.2,118.88,82.75Z"/></g></g></svg>