<svg xmlns="http://www.w3.org/2000/svg" viewBox="0 0 135 135"><defs><style>.cls-1{fill:#413d1f;}.cls-2{fill:#fff;}</style></defs><g id="Layer_2" data-name="Layer 2"><g id="Layer_1-2" data-name="Layer 1"><rect class="cls-1" width="135" height="135" rx="30"/><path class="cls-2" d="M47.19,49.48s-20.73,14.37-24,28.09a16.8,16.8,0,0,0,32.67,7.86C59.29,71.05,42.66,69.19,47.19,49.48Z"/><path class="cls-2" d="M103.19,65.48s-20.73,14.37-24,28.09a16.8,16.8,0,0,0,32.67,7.86C115.29,87.05,98.66,85.19,103.19,65.48Z"/><path class="cls-2" d="M105,0H30A29.83,29.83,0,0,0,14.2,4.53a15.24,15.24,0,0,0,5.5,7.05c-1.13,4.67-.25,10.09,4.8,15.48,5.83,3.9,11.52,4,16,2a15.13,15.13,0,0,0,27.74,5.21,14.31,14.31,0,0,0,2.08.08,13.05,13.05,0,0,0,7.84-2.94,15.1,15.1,0,0,0,24.54-11.23,14.95,14.95,0,0,0,22-12.63A29.86,29.86,0,0,0,105,0ZM49.29,12.4Z"/></g></g></svg>