<svg xmlns="http://www.w3.org/2000/svg" viewBox="0 0 135 135"><defs><style>.cls-1{fill:#413d1f;}.cls-2{fill:#fff;}</style></defs><g id="Layer_2" data-name="Layer 2"><g id="Layer_1-2" data-name="Layer 1"><rect class="cls-1" width="135" height="135" rx="30"/><path class="cls-2" d="M40.58,44.48s-20.73,14.37-24,28.09a16.8,16.8,0,0,0,32.67,7.86C52.67,66.05,36,64.19,40.58,44.48Z"/><path class="cls-2" d="M74.19,74.48s-20.73,14.37-24,28.09a16.8,16.8,0,0,0,32.67,7.86C86.29,96.05,69.66,94.19,74.19,74.48Z"/><path class="cls-2" d="M109.81,44.48s-20.73,14.37-24,28.09a16.8,16.8,0,0,0,32.67,7.86C121.9,66.05,105.27,64.19,109.81,44.48Z"/><path class="cls-2" d="M105,0H30A29.83,29.83,0,0,0,14.2,4.53a15.24,15.24,0,0,0,5.5,7.05c-1.13,4.67-.25,10.09,4.8,15.48,5.83,3.9,11.52,4,16,2a15.13,15.13,0,0,0,27.74,5.21,14.31,14.31,0,0,0,2.08.08,13.05,13.05,0,0,0,7.84-2.94,15.11,15.11,0,0,0,24.55-11.3A14.8,14.8,0,0,0,110,21.92,14.93,14.93,0,0,0,124.89,7.6,29.83,29.83,0,0,0,105,0ZM49.29,12.4Z"/></g></g></svg>