<svg xmlns="http://www.w3.org/2000/svg" viewBox="0 0 135 135"><defs><style>.cls-1{fill:#413d1f;}.cls-2{fill:#fff;}</style></defs><g id="Layer_2" data-name="Layer 2"><g id="Layer_1-2" data-name="Layer 1"><rect class="cls-1" width="135" height="135" rx="30"/><path class="cls-2" d="M71.65,92.44c-2.88-1-7,.61-9.93,4.13a12.68,12.68,0,0,0-3,6.47c-.15-.37-.3-.73-.46-1.09l-2.22.94a62.31,62.31,0,0,1,2.84,7.9,40.54,40.54,0,0,1,1.58,15.36,12.35,12.35,0,0,0-6.82-3.49c-4.52-.84-8.69.53-10.29,3.12.57,3,4,5.75,8.5,6.59a12.52,12.52,0,0,0,7.45-.74A25.53,25.53,0,0,1,58,135h2.72c3.42-7.79,2.88-16.59.53-24.88-.27-1-.57-1.9-.88-2.84,2.77.39,6.3-1.21,9-4.35C72.24,99.41,73.12,95.11,71.65,92.44Z"/><path class="cls-2" d="M112.94,85.6c-3.37-1.95-8.89-1-13.49,2.7a16.38,16.38,0,0,0-5.3,7.13,103.54,103.54,0,0,0-6.67-26.82c5.94,4.18,13.35,4.14,17.21-.33,4.17-4.85,2.59-13.05-3.54-18.33a19.19,19.19,0,0,0-1.88-1.41,19,19,0,0,0,2.17-2.22c5.12-6.25,5.27-14.6.33-18.66s-13.11-2.28-18.24,4A19.55,19.55,0,0,0,81.86,34c.07-.31.14-.62.19-1,1.17-7.46-3-14.32-9.32-15.31S60.34,22,59.17,29.49a15.16,15.16,0,0,0,1.42,9.3c-7-1.76-13.94.93-15.93,6.48a9.58,9.58,0,0,0-.4,4.86,12.35,12.35,0,0,0-7.6,7.23,13.85,13.85,0,0,0-.73,2.17c0-.25,0-.5-.06-.76-.77-5.86-5.41-10.08-10.36-9.43s-8.36,5.92-7.59,11.78A11.78,11.78,0,0,0,21,67.78c-5.67.22-10.26,3.76-10.53,8.37-.29,5,4.59,9.34,10.89,9.71A13.76,13.76,0,0,0,27.17,85c-.11.37-.22.75-.3,1.15-1.38,6.16,1.46,12.05,6.34,13.14s9.95-3,11.33-9.2a13.76,13.76,0,0,0,.06-5.78,75.59,75.59,0,0,1,11.46,18.6l2.22-.94A80.48,80.48,0,0,0,47.76,84.22c5.37,1.83,10.93.17,12.83-4A7.6,7.6,0,0,0,61,78.92a9.45,9.45,0,0,0,3.18,2.91c5.6,3.09,13.31-.13,17.22-7.21a17.71,17.71,0,0,0,2.16-7.08c5.12,11.09,12.13,36.7,4.93,55.8A16.59,16.59,0,0,0,85,115.6c-3.68-4.59-8.86-6.75-12.57-5.58-2,3.37-1,8.9,2.72,13.49,3,3.78,7.1,5.91,10.51,5.88A31.92,31.92,0,0,1,81.33,135h4.19c7.46-9.29,9.57-21.72,9.06-33.78,3.4,1.45,8.48.37,12.76-3C111.93,94.49,114.11,89.32,112.94,85.6ZM43.12,73.83A8.22,8.22,0,1,1,38,63.4,8.22,8.22,0,0,1,43.12,73.83Zm18-10.41a17.4,17.4,0,0,0-2.21,7.66,13.69,13.69,0,0,0-5-3.86,13.32,13.32,0,0,0-1.72-.64,14.58,14.58,0,0,0,1.13-2.15,14.1,14.1,0,0,0,1-3.41,2.34,2.34,0,0,0,.24.09,17.61,17.61,0,0,0,7.41,1C61.66,62.53,61.4,63,61.15,63.42Zm16.64-5.26a10.13,10.13,0,1,1,9.76-10.5A10.14,10.14,0,0,1,77.79,58.16Z"/></g></g></svg>