<svg xmlns="http://www.w3.org/2000/svg" viewBox="0 0 135 135"><defs><style>.cls-1{fill:#413d1f;}.cls-2{fill:#fff;}</style></defs><g id="Layer_2" data-name="Layer 2"><g id="Layer_1-2" data-name="Layer 1"><rect class="cls-1" width="135" height="135" rx="30"/><path class="cls-2" d="M132.23,78.14c-.27-4.6-4.86-8.14-10.53-8.37,12.07-14.18-11.58-28.77-14.9-8.25-.94-4.16-4.32-8.12-7.84-9.24,22-3.13,20.88-31.52-2.77-26.51,10.88-25-27.85-35.64-24.27-5.43C57.65-2.12,32.66,18.82,52.05,36.9c-18,11.6-5.41,35.66,13.4,23a111.41,111.41,0,0,0-6,20C58,72,45.46,63.26,38.81,67a9.51,9.51,0,0,0-.22,5.7c-2.91-7.87-13.17-4-14.66,3.63-2.76-16.88-22.17-4.87-12.26,6.79-15.51,1.41-7.36,19.06,5,14.14-3.9,16.62,16.9,14.56,14.34-.56,6.6,8,11.82,18,13.05,28.41-2.89-3.61-11.93-4.25-14.07-.3.63,4.85,10.54,7.38,14.23,4.16a24.5,24.5,0,0,1-.91,6h2.09a27.06,27.06,0,0,0,.8-7.34s0,0,0,0h0s0,0,0,0,0,0,0,0,0,0,0,0,0,0,0,0a40.19,40.19,0,0,0-2.09-11.38c4.7,2.35,13.67-4.64,11.89-9.94-4.11-2.78-12.67,3.17-12.52,8.11a65.39,65.39,0,0,0-9.88-17.66c12,4.12,15.19-11.35,3.64-14.52A11.42,11.42,0,0,0,39,74c2,7.22,12.85,14.8,19.32,12.3-2.34,16.43-1.49,35,9,48.66H72c-.79-.85-1.5-1.74-2.2-2.65h0c-6.19-8.22-8.59-18.65-8.92-28.79,7.43,5.6,25.37-4.11,23.88-13.34-5.66-5.7-20.83,0-23.87,7.65A109.52,109.52,0,0,1,70,58.6c.32,6.95,6,14.86,12.37,16.83C78.73,83.16,87,89.21,95,86.23A81.08,81.08,0,0,0,83.19,107.1a56.91,56.91,0,0,0-3.08,11.46c-1.91-5-10.35-9.45-14.38-6.72-2.2,5.9,8.12,14.65,13.91,12.3A31.2,31.2,0,0,0,81.27,135h2.62c-3.84-10-1.13-21.22,3-30.71,1.6,6.08,15,8.9,18.32,3.46-.45-6-12.64-9.73-17.23-5.82a76.51,76.51,0,0,1,10.1-15.66c-3.11,18.43,22.17,20.91,17.44.7C122.25,90,132.91,85.31,132.23,78.14Zm-107,14.32c-8,2.8-12.19-9.78-4.13-12.34C29.11,77.32,33.32,89.9,25.26,92.46Zm52.44-44c-15.12-.63-14.26-23.6.86-23.1S92.82,49,77.7,48.48Zm37.5,27.65c-3.12,9.79-18.43,4.67-15-5C103.28,61.32,118.6,66.44,115.2,76.13Z"/></g></g></svg>