<svg xmlns="http://www.w3.org/2000/svg" viewBox="0 0 135 135"><defs><style>.cls-1{fill:#413d1f;}.cls-2{fill:#fff;}</style></defs><g id="Layer_2" data-name="Layer 2"><g id="Layer_1-2" data-name="Layer 1"><rect class="cls-1" width="135" height="135" rx="30"/><path class="cls-2" d="M85.18,101.28c-3.38,1.35-5.83,3.75-6.69,6.19-.13-2-.33-3.89-.62-5.78A79.45,79.45,0,0,0,73,83.48c4.64,3.28,10.44,3.24,13.46-.26,3.26-3.79,2-10.2-2.77-14.32a13.71,13.71,0,0,0-1.47-1.1,13.94,13.94,0,0,0,1.69-1.74c4-4.89,4.13-11.42.26-14.59s-10.25-1.78-14.26,3.11a15.3,15.3,0,0,0-1.3,1.87c0-.24.11-.49.15-.74.91-5.84-2.35-11.19-7.29-12s-9.68,3.33-10.6,9.17A11.8,11.8,0,0,0,52,60.17c-5.51-1.38-10.91.73-12.46,5.07C37.85,70,41.31,75.49,47.25,77.62a13.81,13.81,0,0,0,5.8.79,11.35,11.35,0,0,0-.62,1c-3.06,5.53-2,12,2.38,14.4s10.41-.11,13.46-5.64A13.53,13.53,0,0,0,70,82.64,75.35,75.35,0,0,1,75.5,102a69.42,69.42,0,0,1,.72,8.48,52.44,52.44,0,0,1-.23,6.15,37.17,37.17,0,0,1-2.57,10.63A12.33,12.33,0,0,0,67.85,122c-4.1-2.08-8.49-2-10.75.09-.3,3,2.19,6.64,6.29,8.72a12.52,12.52,0,0,0,7.37,1.38A25.23,25.23,0,0,1,68.57,135h3.22c4-5.15,5.94-11.51,6.57-18.09a53.1,53.1,0,0,0,.25-6.43c0-.21,0-.43,0-.64,2.21,1.86,6.27,2.2,10.25.6,4.27-1.71,7.07-5.09,7-8.14C93.81,100.08,89.45,99.56,85.18,101.28ZM64.66,75.72a7.92,7.92,0,1,1,7.63-8.2A7.91,7.91,0,0,1,64.66,75.72Z"/></g></g></svg>