<svg xmlns="http://www.w3.org/2000/svg" viewBox="0 0 200.09 207.8"><defs><style>.cls-1{fill:#fff;}.cls-2{fill:#3f8c68;}</style></defs><g id="Layer_2" data-name="Layer 2"><g id="Layer_1-2" data-name="Layer 1"><path class="cls-1" d="M49.7,59.5c0-8.3-6.2-11-18.5-14.5C19.1,41.6,9.9,36.8,9.9,21.7,9.9,10.5,18.2,0,33.6,0,42.8,0,48,3.1,51.4,3.1c1.7,0,2.2-.7,2.9-2h1.1l.7,20.2H54.5C49.4,12.1,42.6,2.1,32.3,2.1c-7.2,0-12.2,4.2-12.2,10.1,0,7.4,6.8,9.9,16.9,12.6,11.1,3,23.4,6.8,23.4,23.4,0,14.4-9.8,23.9-24.5,23.9-9.7,0-18.1-3-20.9-3-1.6,0-2.2,1.1-3,3H10.6l-1-23.8h1.7C16.3,58.3,26,70,37,70,43,70,49.7,66.8,49.7,59.5Z"/><path class="cls-1" d="M138.09,22.5h-.9c-13.25.26-22,6.52-24.38,18.29,9.25,2.29,13.36,7.81,13.36,14.91a15.73,15.73,0,0,1-5.38,11.82c4.11,3,9.68,4.56,16.7,4.56h.23c17.64-.08,25.17-9.17,25.17-25.5S154.89,22.5,138.09,22.5Zm5.6,28.9c0,13-.3,18.9-6,18.9-6.1,0-6.3-7.5-6.3-19.1V43.4c0-10.95.28-18.61,5.84-19.08l.56,0c5.6,0,5.9,7.8,5.9,18.6Z"/><path class="cls-1" d="M165.69,25.3h-5.5V23.5h5.5V10.6L184.29,6V23.5h13v1.8h-13V59c0,5.9.9,9.1,4.4,9.1,4.8,0,7.8-4.4,8.7-11.2l1.7.2c-.9,7.8-4.2,15-16.4,15-9.9,0-17-2.9-17-15.3Z"/><path class="cls-2" d="M161.08,167.12a16.65,16.65,0,0,0-7.32,4.34,70.58,70.58,0,0,0,5.34-21.75c1-13.59-2.63-27.34-12.33-40.87a92.81,92.81,0,0,0-9.48-11.18,97.15,97.15,0,0,0,2.3-20.43h8.46V74.81H127v2.42h9.55a94,94,0,0,1-2.06,17.65c-5.44-5.2-12-9.31-18.37-13.42Q110.7,78,106.71,75.3c6.22-2.15,10.88-4.75,14.08-7.76a15.73,15.73,0,0,0,5.38-11.82c0-7.1-4.11-12.62-13.36-14.91-.86-.22-1.76-.41-2.7-.56a49.71,49.71,0,0,0-8.11-.61A39.22,39.22,0,0,0,91.38,41a24.62,24.62,0,0,0-12.29,7.48c-3,3.59-4.89,8.36-4.89,14.45a24,24,0,0,0,1.26,7.89c1.65,4.81,4.87,8.91,9.38,13-14.15,3.14-19,10-19,20.3A19.68,19.68,0,0,0,69,115.35c2.82,4.27,7.41,7.19,13.15,9a53.27,53.27,0,0,0,12.26,2.21c2,.15,4,.22,6,.22A40.5,40.5,0,0,0,113,125c.45-.14.88-.29,1.31-.45a28.75,28.75,0,0,0,11.91-8.28,59.07,59.07,0,0,1,6.23,11.06,73,73,0,0,1,5.58,28.6c0,.61,0,1.22,0,1.83a88.08,88.08,0,0,1-2.9,20.84,13,13,0,0,0-5.35-6.35c-4.12-2.67-8.79-3-11.42-1.11-.66,3.18,1.58,7.29,5.7,10,3.34,2.16,7,2.8,9.72,1.95-4.33,12.64-11.66,20.79-19.2,21.76l-.75.07c-.26,0-.51,0-.77,0-4.83,0-5.56-2.78-4.35-6.41h4.23a16.39,16.39,0,0,0,.73-4.35c0-5.68-3.51-8.7-9.67-8.7-5.8,0-10,4.11-10,10.15,0,7.62,4.58,12.26,16.55,12.21,1.19,0,2.36-.06,3.53-.17h0l.77-.08h0c14-1.54,26-10.43,35.42-28.51.38-.73.75-1.47,1.11-2.2,2.45,2.94,7.84,4,13.37,2.38s9.58-5.67,9.89-9.55C172.2,166.6,166.71,165.44,161.08,167.12ZM91.39,48.85c1.86-5.16,6.34-6.67,10.25-6.67,4.26,0,7.28,1.76,9,5.39a21.41,21.41,0,0,1,1.56,8.87c0,8-.12,13.42-7.61,17.41-2.23-1.55-4.13-2.95-5.75-4.28-4.24-3.46-6.5-6.35-7.53-9.66a17.42,17.42,0,0,1-.74-5.4A16.79,16.79,0,0,1,91.39,48.85Zm24.12,72.21h0a23,23,0,0,1-3.2,1.31,27.21,27.21,0,0,1-8.49,1.27A23.34,23.34,0,0,1,94.3,122c-4.25-1.85-7.15-5.4-8.56-11.26-.19-.75-.35-1.55-.48-2.38a47.14,47.14,0,0,1-.54-7.52c0-8.34.6-12.57,1.81-15.11,5.68,5,13.17,9.67,22,15.47a89.62,89.62,0,0,1,14.28,11.22c.44.44.88.89,1.31,1.35A24.6,24.6,0,0,1,115.51,121.06Z"/><path class="cls-1" d="M101.64,42.18c-3.91,0-8.39,1.51-10.25,6.67V51.4c0,3.28,0,6.11-.13,8.51C90.89,67,89.65,70.3,85.39,70.3c-6.1,0-6.3-7.5-6.3-19.1V43.4c0-10.95.28-18.61,5.84-19.08l.56,0c5.27,0,5.85,6.92,5.89,16.74A39.22,39.22,0,0,1,102,39.64a49.71,49.71,0,0,1,8.11.61c-1.94-11.92-9.89-17.75-24.32-17.75h-.9c-14.31.28-23.44,7.56-24.81,21.23a34.85,34.85,0,0,0-.19,3.75,37.57,37.57,0,0,0,.27,4.6v0c1.2,9.67,6.32,16.17,15.3,18.74a35.24,35.24,0,0,0,9.73,1.24,32.37,32.37,0,0,0,13.6-2.53c7.93-3.65,11.6-11.16,11.8-22C108.92,43.94,105.9,42.18,101.64,42.18Z"/><path class="cls-1" d="M26,121.37v33.51h6.5v1.9H0v-1.9H6.5V88.67H0v-1.9H30.2c20.9,0,30.9,2.2,30.9,16.8,0,12.2-6.4,15.8-17,16.71v.29c10.8,1.41,14.5,5.61,14.5,17.21v5.3c0,6.5.3,8.8,3.1,8.8,1.8,0,3.3-.8,4.6-8.6l1.7.2c-1.5,11.4-4.3,14.3-13.6,14.3-12.6,0-16.3-4.2-16.3-18.3v-7.3c0-7.11-1.4-10.81-6.8-10.81Zm0-1.9h3.2c7.4,0,11.2-4.1,11.2-14.9v-2.9c0-11.2-4.1-13-11.1-13H26Z"/><path class="cls-1" d="M113.46,128.71A31.92,31.92,0,0,0,113,125a40.5,40.5,0,0,1-12.52,1.78c-2.06,0-4.08-.07-6-.22,0,.66,0,1.33,0,2v8.5c0,13-.3,18.9-6,18.9-6.1,0-6.31-7.5-6.31-19.1v-7.8c0-1.65,0-3.23,0-4.72.14-6.87.78-11.85,3.61-13.65A5,5,0,0,1,88.5,110c4.38,0,5.52,4.76,5.8,12a23.34,23.34,0,0,0,9.51,1.68,27.21,27.21,0,0,0,8.49-1.27c-2.87-9.53-10.58-14.2-23.5-14.2q-1.83,0-3.54.15c-6.91.59-12.45,3-16.28,7s-6.09,10.14-6.09,17.82A28.67,28.67,0,0,0,65.7,146.4h0a17,17,0,0,0,1.37,2.3c4.07,5.87,11.13,9.06,21.13,9.06h.23c15.88-.07,23.56-7.45,24.94-20.83a46.36,46.36,0,0,0,.23-4.67C113.6,131,113.55,129.85,113.46,128.71Z"/><path class="cls-1" d="M146.77,108.84a40.45,40.45,0,0,0-7.68-.67h-.86l-1.15,0-.93,0c-.51,0-1,.08-1.51.14l-.86.1-1.05.16-.1,0-.64.11-.29.06-.95.2-.82.2-1,.28c-.47.14-.92.3-1.37.46-.14,0-.27.1-.4.15l-.4.16-.4.16-.4.17-.78.37c-.28.13-.55.27-.82.42s-.54.3-.8.46-.52.31-.77.48a20,20,0,0,0-7.3,8.68h0a24.32,24.32,0,0,0-1.24,3.49,27.86,27.86,0,0,0-.8,4.16,35.39,35.39,0,0,0-.27,4.46c0,1.3.06,2.56.18,3.77,1.28,13.12,9.53,20.65,24.59,20.82h.53c9.85,0,16.58-2.79,20.61-8.06,3.28-4.25,4.79-10.12,4.79-17.44C163.89,118.77,158.34,111,146.77,108.84Zm-2.08,28.23c0,13-.3,18.9-6,18.9a5.43,5.43,0,0,1-.71,0c-5.41-.57-5.59-7.93-5.59-19.06v-7.8c0-.59,0-1.17,0-1.74,0-10.35.61-17.36,6.39-17.36H139c5.38.21,5.67,7.94,5.67,18.59ZM139,108.17h-.74l-1.15,0-.93,0c-.51,0-1,.08-1.51.14l-.86.1-1.05.16-.1,0-.64.11-.29.06-.95.2-.82.2-1,.28c-.47.14-.92.3-1.37.46-.14,0-.27.1-.4.15l-.4.16-.4.16-.4.17-.78.37c-.28.13-.55.27-.82.42s-.54.3-.8.46-.52.31-.77.48c.44.44.88.89,1.31,1.35a24.6,24.6,0,0,1-8.61,7.33h0a24.32,24.32,0,0,0-1.24,3.49,28.75,28.75,0,0,0,11.91-8.28,59.07,59.07,0,0,1,6.23,11.06c0-10.35.61-17.36,6.39-17.36H139Z"/><path class="cls-1" d="M166.69,111h-5.5v-1.8h5.5V96.27l18.6-4.6v17.5h13V111h-13v33.71c0,5.9.9,9.1,4.4,9.1,4.8,0,7.8-4.4,8.7-11.2l1.7.2c-.9,7.8-4.2,15-16.4,15-9.9,0-17-2.9-17-15.3Z"/></g></g></svg>