<svg xmlns="http://www.w3.org/2000/svg" viewBox="0 0 135 135"><defs><style>.cls-1{fill:#413d1f;}.cls-2{fill:#fff;}</style></defs><g id="Layer_2" data-name="Layer 2"><g id="Layer_1-2" data-name="Layer 1"><rect class="cls-1" width="135" height="135" rx="30"/><circle class="cls-2" cx="67.5" cy="67.5" r="25.5"/><path class="cls-2" d="M91.85,45.27,103.17,34a1.5,1.5,0,0,0-2.12-2.12L89.73,43.15a1.5,1.5,0,1,0,2.12,2.12Z"/><path class="cls-2" d="M116.44,66h-16a1.5,1.5,0,0,0,0,3h16a1.5,1.5,0,0,0,0-3Z"/><path class="cls-2" d="M91.85,89.73a1.5,1.5,0,1,0-2.12,2.12l11.32,11.32a1.5,1.5,0,0,0,2.12-2.12Z"/><path class="cls-2" d="M67.5,98.94a1.5,1.5,0,0,0-1.5,1.5v16a1.5,1.5,0,0,0,3,0v-16A1.5,1.5,0,0,0,67.5,98.94Z"/><path class="cls-2" d="M43.15,89.73,31.83,101.05A1.5,1.5,0,0,0,34,103.17L45.27,91.85a1.5,1.5,0,1,0-2.12-2.12Z"/><path class="cls-2" d="M36.06,67.5a1.5,1.5,0,0,0-1.5-1.5h-16a1.5,1.5,0,0,0,0,3h16A1.5,1.5,0,0,0,36.06,67.5Z"/><path class="cls-2" d="M43.15,45.27a1.5,1.5,0,0,0,2.12-2.12L34,31.83A1.5,1.5,0,0,0,31.83,34Z"/><path class="cls-2" d="M67.5,36.06a1.5,1.5,0,0,0,1.5-1.5v-16a1.5,1.5,0,0,0-3,0v16A1.5,1.5,0,0,0,67.5,36.06Z"/></g></g></svg>