<svg xmlns="http://www.w3.org/2000/svg" viewBox="0 0 135 135"><defs><style>.cls-1{fill:#413d1f;}.cls-2{fill:#fff;}</style></defs><g id="Layer_2" data-name="Layer 2"><g id="Layer_1-2" data-name="Layer 1"><rect class="cls-1" width="135" height="135" rx="30"/><path class="cls-2" d="M135,92V89H91.86a25.5,25.5,0,0,0-50.12,0H0v3H4.64L0,97.15V99.3L6.57,92H15L.21,108.42c.07.62.16,1.24.27,1.85L16.92,92h8.43L2.63,117.23c.22.47.44.94.68,1.4L27.28,92H35.7L6.86,124c.31.38.62.74.95,1.1L37.63,92h8.43L12.48,129.3c.39.28.79.56,1.19.82L48,92h8.43l-37,41.06c.49.19,1,.36,1.47.52L58.35,92h8.42L28.11,134.93c.63,0,1.25.07,1.88.07L68.7,92h8.43L38.41,135h1.94L79.06,92h8.42L48.77,135H50.7L89.41,92h8.43L59.12,135h1.94L99.77,92h8.42L69.48,135h1.94l38.7-43h8.43L79.83,135h1.94l38.71-43h8.43L90.19,135h1.94l38.71-43Z"/><polygon class="cls-2" points="100.54 135 102.48 135 135 98.88 135 96.73 100.54 135"/><path class="cls-2" d="M114.13,133.57l20.25-22.49c.18-.86.31-1.74.42-2.62l-23.24,25.8C112.43,134.07,113.29,133.84,114.13,133.57Z"/><path class="cls-2" d="M80.2,66.27a1,1,0,0,0,1.34-.46L85,58.6a1,1,0,0,0,.1-.43,1,1,0,0,0-1.9-.44l-3.47,7.21A1,1,0,0,0,80.2,66.27Z"/><path class="cls-2" d="M92.4,75l6.25-5a1,1,0,0,0,.38-.79,1,1,0,0,0-1.63-.78l-6.25,5A1,1,0,0,0,91,74.88,1,1,0,0,0,92.4,75Z"/><path class="cls-2" d="M97,87.31a1,1,0,0,0,1.19.75l7.8-1.78a1,1,0,0,0,.78-1,.82.82,0,0,0,0-.22,1,1,0,0,0-1.2-.75l-7.8,1.78A1,1,0,0,0,97,87.31Z"/><path class="cls-2" d="M27.53,86.28l7.8,1.78a1,1,0,0,0,.45-2L28,84.33l-.23,0a1,1,0,0,0-1,.78A1,1,0,0,0,27.53,86.28Z"/><path class="cls-2" d="M41.11,75a1,1,0,1,0,1.25-1.56l-6.26-5a1,1,0,0,0-.62-.22,1,1,0,0,0-.62,1.79Z"/><path class="cls-2" d="M52,65.81a1,1,0,0,0,1.8-.87L50.3,57.73a1,1,0,0,0-.91-.57,1,1,0,0,0-.43.1,1,1,0,0,0-.46,1.34Z"/><path class="cls-2" d="M66.75,63.2a1,1,0,0,0,1-1v-8a1,1,0,0,0-2,0v8A1,1,0,0,0,66.75,63.2Z"/></g></g></svg>