<svg xmlns="http://www.w3.org/2000/svg" viewBox="0 0 135 135"><defs><style>.cls-1{fill:#413d1f;}.cls-2{fill:#fff;}</style></defs><g id="Layer_2" data-name="Layer 2"><g id="Layer_1-2" data-name="Layer 1"><rect class="cls-1" width="135" height="135" rx="30"/><path class="cls-2" d="M75.19,56.48s-20.73,14.37-24,28.09a16.8,16.8,0,0,0,32.67,7.86C87.29,78.05,70.66,76.19,75.19,56.48Z"/><path class="cls-2" d="M105,0H30A29.83,29.83,0,0,0,14.2,4.53a15.24,15.24,0,0,0,5.5,7.05c-1.13,4.67-.25,10.09,4.8,15.48,5.83,3.9,11.52,4,16,2a15.13,15.13,0,0,0,27.74,5.21,14.31,14.31,0,0,0,2.08.08,13.05,13.05,0,0,0,7.84-2.94,15.1,15.1,0,0,0,24.54-11.17A14.94,14.94,0,0,0,124.66,7.4,29.86,29.86,0,0,0,105,0ZM49.29,12.4Z"/></g></g></svg>